<svg width="405" height="409" viewBox="0 0 405 409" fill="none" xmlns="http://www.w3.org/2000/svg">
<path d="M202.449 409C314.259 409 404.899 356.67 404.899 292.118C404.899 227.566 314.259 175.236 202.449 175.236C90.6397 175.236 0 227.566 0 292.118C0 356.67 90.6397 409 202.449 409Z" fill="#F5F5F5"/>
<path d="M234.22 373.972C258.4 373.972 278.002 362.656 278.002 348.698C278.002 334.739 258.4 323.423 234.22 323.423C210.04 323.423 190.438 334.739 190.438 348.698C190.438 362.656 210.04 373.972 234.22 373.972Z" fill="#E0E0E0"/>
<path d="M211.466 263.111L94.3607 330.733C91.0644 332.672 85.3153 332.4 81.5052 330.2L39.9334 306.195C36.133 304.004 35.7161 300.679 38.9639 298.778L156.069 231.156C159.365 229.217 165.114 229.489 168.924 231.689L210.496 255.694C214.345 257.885 214.762 261.211 211.466 263.111Z" fill="#E0E0E0"/>
<path d="M337.558 286.718L346.788 292.079C346.788 292.079 342.134 277.227 344.713 262.277C345.336 258.758 346.608 255.385 348.465 252.33C349.192 250.818 354.757 241.501 349.861 237.196C344.965 232.892 333.476 241.452 333.99 264.468C334.237 272.006 335.435 279.482 337.558 286.718Z" fill="#005B77"/>
<path opacity="0.5" d="M337.558 286.718L346.788 292.079C346.788 292.079 342.134 277.227 344.713 262.277C345.336 258.758 346.608 255.385 348.465 252.33C349.192 250.818 354.757 241.501 349.861 237.196C344.965 232.892 333.476 241.452 333.99 264.468C334.237 272.006 335.435 279.482 337.558 286.718Z" fill="black"/>
<path d="M341.853 289.636C341.766 289.636 341.681 289.608 341.61 289.558C341.539 289.508 341.485 289.437 341.455 289.355C341.455 289.258 337.936 279.573 338.12 264.042C338.304 248.51 346.516 240.076 346.603 239.998C346.641 239.96 346.686 239.929 346.736 239.908C346.786 239.887 346.84 239.876 346.894 239.876C346.948 239.876 347.002 239.887 347.052 239.908C347.102 239.929 347.147 239.96 347.185 239.998C347.224 240.037 347.255 240.083 347.276 240.134C347.297 240.185 347.308 240.239 347.308 240.294C347.308 240.349 347.297 240.403 347.276 240.454C347.255 240.505 347.224 240.551 347.185 240.59C347.107 240.667 339.138 248.782 338.954 264.051C338.77 279.321 342.212 288.977 342.241 289.074C342.261 289.125 342.27 289.179 342.269 289.234C342.268 289.288 342.255 289.342 342.233 289.392C342.21 289.442 342.178 289.487 342.137 289.523C342.097 289.56 342.05 289.589 341.998 289.607L341.853 289.636Z" fill="white"/>
<path d="M344.713 290.906L359.953 299.903C359.953 299.903 366.934 298.876 366.41 292.302C365.887 285.729 363.046 284.188 366.575 281.299C370.104 278.41 371.015 278.225 370.841 275.394C370.666 272.564 368.776 271.332 367.874 270.217C366.972 269.102 364.49 266.737 366.245 263.334C368 259.931 370.375 256.625 366.846 255.055C364.733 254.085 361.185 255.297 358.838 257.788C356.492 260.28 354.543 262.083 352.323 262.636C350.103 263.189 345.45 263.256 345.605 267.096C345.76 270.935 346.758 272.263 345.828 273.96C344.073 277.169 336.579 278.904 344.713 290.906Z" fill="#005B77"/>
<path opacity="0.2" d="M344.713 290.906L359.953 299.903C359.953 299.903 366.934 298.876 366.41 292.302C365.887 285.729 363.046 284.188 366.575 281.299C370.104 278.41 371.015 278.225 370.841 275.394C370.666 272.564 368.776 271.332 367.874 270.217C366.972 269.102 364.49 266.737 366.245 263.334C368 259.931 370.375 256.625 366.846 255.055C364.733 254.085 361.185 255.297 358.838 257.788C356.492 260.28 354.543 262.083 352.323 262.636C350.103 263.189 345.45 263.256 345.605 267.096C345.76 270.935 346.758 272.263 345.828 273.96C344.073 277.169 336.579 278.904 344.713 290.906Z" fill="black"/>
<path d="M350.917 294.978C350.812 294.978 350.71 294.938 350.632 294.866C350.555 294.794 350.508 294.696 350.5 294.59C350.5 294.367 348.833 271.642 364.616 256.722C364.697 256.646 364.805 256.605 364.916 256.609C365.027 256.613 365.132 256.66 365.208 256.741C365.283 256.822 365.324 256.93 365.32 257.041C365.317 257.152 365.269 257.257 365.188 257.333C349.676 271.972 351.324 294.299 351.344 294.522C351.352 294.634 351.316 294.744 351.243 294.83C351.171 294.915 351.067 294.968 350.956 294.978H350.917Z" fill="white"/>
<path d="M353.69 275.501C353.585 275.501 353.483 275.461 353.405 275.389C353.328 275.317 353.281 275.219 353.273 275.113C353.155 273.368 352.684 271.666 351.887 270.109C351.09 268.553 349.985 267.174 348.639 266.058C348.595 266.026 348.557 265.985 348.528 265.938C348.5 265.891 348.48 265.838 348.472 265.784C348.463 265.729 348.465 265.674 348.478 265.62C348.491 265.567 348.515 265.516 348.547 265.472C348.58 265.427 348.621 265.389 348.668 265.361C348.715 265.332 348.767 265.313 348.821 265.304C348.876 265.295 348.931 265.298 348.985 265.311C349.039 265.324 349.089 265.347 349.134 265.379C350.588 266.564 351.78 268.037 352.636 269.706C353.492 271.375 353.993 273.202 354.107 275.074C354.115 275.183 354.08 275.291 354.009 275.375C353.939 275.458 353.838 275.51 353.729 275.52L353.69 275.501Z" fill="white"/>
<path d="M352.527 279.379C352.423 279.381 352.322 279.342 352.246 279.272C352.169 279.193 352.126 279.087 352.126 278.977C352.126 278.866 352.169 278.76 352.246 278.681C352.41 278.497 356.385 274.202 365.576 275.462C365.685 275.481 365.782 275.541 365.849 275.629C365.916 275.717 365.946 275.827 365.935 275.937C365.918 276.047 365.859 276.146 365.77 276.213C365.681 276.28 365.57 276.31 365.46 276.296C356.734 275.104 352.905 279.205 352.856 279.205C352.821 279.259 352.772 279.304 352.714 279.334C352.656 279.365 352.592 279.38 352.527 279.379Z" fill="white"/>
<path d="M58.1116 273.669L53.5647 283.315C53.5647 283.315 48.9596 268.443 38.3533 257.594C35.8506 255.045 32.8906 252.99 29.6279 251.535C28.1834 250.701 18.3139 246.184 19.933 239.901C21.552 233.619 35.8326 234.084 48.4748 253.348C52.5309 259.688 55.7688 266.516 58.1116 273.669Z" fill="#005B77"/>
<path opacity="0.5" d="M58.1116 273.669L53.5647 283.315C53.5647 283.315 48.9596 268.443 38.3533 257.594C35.8506 255.045 32.8906 252.99 29.6279 251.535C28.1834 250.701 18.3139 246.184 19.933 239.901C21.552 233.619 35.8326 234.084 48.4748 253.348C52.5309 259.688 55.7688 266.516 58.1116 273.669Z" fill="black"/>
<path d="M55.9981 278.574C55.9058 278.573 55.8162 278.543 55.7428 278.487C55.6693 278.431 55.616 278.353 55.5909 278.264C55.5909 278.167 52.9732 268.346 44.1024 255.791C35.2315 243.236 24.1308 241.161 24.063 241.142C24.0088 241.133 23.957 241.113 23.9105 241.083C23.8641 241.054 23.8239 241.015 23.7924 240.97C23.7609 240.925 23.7385 240.874 23.7267 240.821C23.7149 240.767 23.7139 240.711 23.7237 240.657C23.7449 240.549 23.8072 240.453 23.8976 240.39C23.988 240.327 24.0994 240.301 24.2084 240.318C24.3247 240.318 35.8423 242.548 44.8392 255.306C53.8361 268.065 56.4731 277.954 56.4731 278.051C56.4999 278.159 56.4834 278.273 56.4273 278.369C56.3711 278.465 56.2797 278.535 56.1726 278.564L55.9981 278.574Z" fill="white"/>
<path d="M54.6019 281.182L47.1368 297.208C47.1368 297.208 40.806 300.32 37.5194 294.61C34.2329 288.899 35.6774 286.02 31.1402 285.642C26.603 285.264 25.7304 285.642 24.2665 283.209C22.8026 280.775 23.6654 278.681 23.772 277.256C23.8787 275.831 24.5961 272.467 21.2126 270.654C17.8291 268.841 13.9996 267.483 16.0258 264.187C17.228 262.248 20.8151 261.172 24.1695 261.899C27.524 262.626 30.1319 262.995 32.2939 262.209C34.4559 261.424 38.3047 258.826 40.3601 262.074C42.4154 265.321 42.299 266.979 44.0732 267.891C47.3307 269.5 54.4856 266.669 54.6019 281.182Z" fill="#005B77"/>
<path opacity="0.2" d="M54.6019 281.182L47.1368 297.208C47.1368 297.208 40.806 300.32 37.5194 294.61C34.2329 288.899 35.6774 286.02 31.1402 285.642C26.603 285.264 25.7304 285.642 24.2665 283.209C22.8026 280.775 23.6654 278.681 23.772 277.256C23.8787 275.831 24.5961 272.467 21.2126 270.654C17.8291 268.841 13.9996 267.483 16.0258 264.187C17.228 262.248 20.8151 261.172 24.1695 261.899C27.524 262.626 30.1319 262.995 32.2939 262.209C34.4559 261.424 38.3047 258.826 40.3601 262.074C42.4154 265.321 42.299 266.979 44.0732 267.891C47.3307 269.5 54.4856 266.669 54.6019 281.182Z" fill="black"/>
<path d="M51.5576 288.124C51.4841 288.124 51.412 288.104 51.3488 288.067C51.2857 288.029 51.2338 287.975 51.1989 287.911C51.0825 287.717 39.7492 268.414 18.6918 265.147C18.6367 265.139 18.5839 265.12 18.5363 265.091C18.4888 265.062 18.4475 265.023 18.415 264.978C18.3825 264.933 18.3593 264.882 18.3469 264.827C18.3345 264.773 18.3331 264.717 18.3428 264.662C18.3498 264.607 18.3678 264.555 18.3958 264.507C18.4238 264.46 18.4611 264.419 18.5055 264.386C18.55 264.353 18.6005 264.33 18.6542 264.318C18.7079 264.305 18.7636 264.304 18.8178 264.313C40.2824 267.648 51.7806 287.3 51.926 287.494C51.961 287.558 51.9788 287.631 51.9777 287.704C51.9765 287.777 51.9565 287.849 51.9194 287.913C51.8824 287.976 51.8296 288.029 51.7662 288.066C51.7028 288.103 51.631 288.123 51.5576 288.124Z" fill="white"/>
<path d="M38.266 273.64C38.1913 273.639 38.1179 273.62 38.0533 273.582C37.9886 273.545 37.9349 273.491 37.8976 273.426C36.9348 271.821 36.3146 270.033 36.076 268.176C35.8374 266.319 35.9856 264.433 36.5112 262.636C36.5297 262.584 36.5581 262.537 36.5949 262.496C36.6317 262.456 36.6761 262.423 36.7256 262.399C36.7751 262.376 36.8288 262.363 36.8835 262.36C36.9382 262.357 36.9929 262.365 37.0444 262.384C37.096 262.402 37.1434 262.431 37.184 262.467C37.2246 262.504 37.2575 262.549 37.2809 262.598C37.3043 262.648 37.3177 262.701 37.3204 262.756C37.3231 262.811 37.315 262.865 37.2965 262.917C36.8225 264.601 36.6941 266.363 36.919 268.097C37.1439 269.831 37.7176 271.503 38.6053 273.009C38.633 273.057 38.6509 273.11 38.6581 273.164C38.6653 273.219 38.6615 273.275 38.6471 273.328C38.6327 273.381 38.6079 273.431 38.5741 273.474C38.5403 273.518 38.4982 273.554 38.4502 273.581C38.3949 273.616 38.3314 273.636 38.266 273.64Z" fill="white"/>
<path d="M28.9687 281.008C28.9105 281.007 28.8531 280.995 28.7998 280.971C28.7466 280.948 28.6985 280.914 28.6584 280.872C28.6194 280.833 28.5885 280.787 28.5674 280.736C28.5463 280.686 28.5354 280.631 28.5354 280.576C28.5354 280.521 28.5463 280.467 28.5674 280.416C28.5885 280.365 28.6194 280.319 28.6584 280.281C35.503 274.027 41.2618 275.307 41.4557 275.365C41.5093 275.378 41.5599 275.401 41.6045 275.433C41.6492 275.465 41.687 275.506 41.7158 275.553C41.7447 275.6 41.764 275.652 41.7726 275.706C41.7812 275.76 41.7789 275.816 41.766 275.869C41.7547 275.924 41.7324 275.975 41.7006 276.02C41.6687 276.066 41.6279 276.104 41.5807 276.133C41.5335 276.162 41.4809 276.181 41.4261 276.189C41.3712 276.197 41.3153 276.194 41.2618 276.18C41.2037 276.18 35.7163 274.968 29.2207 280.901C29.15 280.962 29.0618 280.999 28.9687 281.008Z" fill="white"/>
<path d="M54.7085 78.374C54.7095 75.5511 55.4526 72.7781 56.8632 70.333C58.2738 67.8878 60.3024 65.8564 62.7456 64.4424L165.046 5.38092C165.729 4.98742 166.491 4.75182 167.276 4.69143C168.062 4.63105 168.851 4.74741 169.586 5.03196C170.32 5.31652 170.982 5.76204 171.522 6.3358C172.062 6.90956 172.466 7.59698 172.705 8.34756C172.431 7.14505 171.917 6.0102 171.194 5.01077C170.471 4.01134 169.554 3.16784 168.498 2.53061L168.129 2.31732C165.584 0.80273 162.677 0.00229743 159.714 0.000234876C158.767 -0.00873214 157.836 0.23921 157.019 0.717661L54.7182 59.8082C52.2712 61.2187 50.239 63.2491 48.8264 65.6949C47.4137 68.1406 46.6704 70.9154 46.6714 73.7398V294.968C46.6726 295.893 46.9166 296.8 47.3791 297.601C47.8416 298.401 48.5062 299.065 49.3065 299.528C50.1067 299.99 51.0144 300.234 51.9387 300.236C52.863 300.237 53.7713 299.995 54.5728 299.535L54.7085 299.457V78.374Z" fill="#37474F"/>
<path d="M164.911 245.107L62.6101 304.169C61.8099 304.632 60.9018 304.876 59.9772 304.877C59.0526 304.878 58.1441 304.635 57.3432 304.173C56.5422 303.711 55.8771 303.046 55.4146 302.246C54.9521 301.445 54.7087 300.537 54.7087 299.612V78.374C54.7098 75.5512 55.4528 72.7781 56.8634 70.333C58.274 67.8878 60.3026 65.8564 62.7458 64.4424L165.047 5.38094C165.848 4.9205 166.756 4.67876 167.681 4.67994C168.605 4.68111 169.513 4.92516 170.313 5.38764C171.113 5.85011 171.778 6.51476 172.24 7.31501C172.703 8.11525 172.947 9.02298 172.948 9.94725V231.176C172.949 233.999 172.207 236.773 170.796 239.218C169.385 241.664 167.355 243.695 164.911 245.107Z" fill="#455A64"/>
<path d="M54.7085 299.612V78.3741C54.7096 75.9639 55.253 73.5848 56.2984 71.4131L48.3874 66.5657C47.2607 68.8067 46.673 71.28 46.6714 73.7884V296.869C46.6716 297.746 46.8995 298.608 47.3328 299.371C47.7662 300.134 48.3901 300.772 49.1436 301.222L53.2252 303.645C54.6378 304.489 56.2526 304.935 57.8981 304.935H59.934C59.2414 304.928 58.5569 304.786 57.9194 304.515C57.282 304.244 56.7041 303.85 56.2189 303.356C55.7336 302.862 55.3505 302.277 55.0913 301.634C54.8322 300.992 54.7021 300.305 54.7085 299.612Z" fill="#263238"/>
<path d="M161.391 26.6516V212.649C161.389 215.142 160.732 217.592 159.485 219.751C158.237 221.91 156.444 223.704 154.285 224.952L63.9478 277.101C63.2668 277.496 62.4956 277.71 61.7083 277.721C61.9689 278.324 62.3541 278.865 62.8387 279.308C63.3233 279.751 63.8963 280.087 64.5199 280.293C65.1435 280.499 65.8037 280.571 66.457 280.504C67.1104 280.436 67.742 280.231 68.3105 279.902L158.648 227.744C160.806 226.496 162.599 224.703 163.844 222.543C165.09 220.383 165.745 217.934 165.744 215.441V31.2858C165.747 30.1039 165.297 28.9659 164.488 28.1045C163.679 27.243 162.571 26.7233 161.391 26.6516Z" fill="#37474F"/>
<path d="M61.7084 277.673C62.4958 277.661 63.2669 277.447 63.948 277.052L154.285 224.903C156.437 223.66 158.226 221.874 159.473 219.724C160.72 217.574 161.381 215.134 161.392 212.649V26.6516C160.485 26.6593 159.591 26.8679 158.774 27.2624L68.4367 79.4114C66.2763 80.6576 64.4821 82.4507 63.2346 84.6104C61.9871 86.7701 61.3304 89.2202 61.3303 91.7142V275.821C61.3294 276.468 61.4614 277.108 61.7181 277.702L61.7084 277.673Z" fill="#005B77"/>
<g opacity="0.5">
<path d="M61.7084 277.673C62.4958 277.661 63.2669 277.447 63.948 277.052L154.285 224.903C156.437 223.66 158.226 221.874 159.473 219.724C160.72 217.574 161.381 215.134 161.392 212.649V26.6516C160.485 26.6593 159.591 26.8679 158.774 27.2624L68.4367 79.4114C66.2763 80.6576 64.4821 82.4507 63.2346 84.6104C61.9871 86.7701 61.3304 89.2202 61.3303 91.7142V275.821C61.3294 276.468 61.4614 277.108 61.7181 277.702L61.7084 277.673Z" fill="white"/>
</g>
<path d="M99.5088 52.1589C99.478 52.7229 99.3155 53.2719 99.0344 53.7618C98.7532 54.2518 98.3612 54.669 97.8897 54.9801C96.9881 55.494 96.261 55.0771 96.261 54.0106C96.2921 53.4456 96.4557 52.8958 96.7387 52.4057C97.0216 51.9156 97.4159 51.4989 97.8897 51.1894C98.7817 50.7435 99.5088 51.1216 99.5088 52.1589Z" fill="#263238"/>
<path d="M105.568 48.6687C105.535 49.2334 105.371 49.7827 105.088 50.2725C104.806 50.7624 104.412 51.1793 103.939 51.4899C103.038 52.0038 102.311 51.5869 102.311 50.5204C102.342 49.9554 102.505 49.4056 102.788 48.9155C103.071 48.4254 103.465 48.0087 103.939 47.6992C104.831 47.2145 105.568 47.6314 105.568 48.6687Z" fill="#263238"/>
<path d="M129.99 36.4435L110.348 47.835C109.562 48.281 108.932 47.835 108.932 46.7686C108.94 46.2398 109.073 45.7204 109.319 45.2522C109.564 44.7841 109.917 44.3803 110.348 44.0734L130.019 32.7206C130.794 32.265 131.424 32.7206 131.424 33.7774C131.409 34.3027 131.271 34.8171 131.022 35.2799C130.773 35.7426 130.419 36.141 129.99 36.4435Z" fill="#263238"/>
<path d="M126.664 252.088C127.837 252.088 128.603 253.338 128.603 255.268C128.603 258.292 126.713 261.947 124.464 263.246L115.05 268.685C114.629 268.947 114.149 269.097 113.654 269.122C112.481 269.122 111.715 267.871 111.715 265.942C111.715 262.907 113.654 259.252 115.855 257.963L125.268 252.524C125.692 252.26 126.176 252.11 126.674 252.088M126.674 251.283C126.034 251.302 125.411 251.493 124.871 251.836L115.457 257.265C112.946 258.709 110.91 262.597 110.91 265.99C110.91 268.482 112.044 269.975 113.654 269.975C114.294 269.956 114.916 269.765 115.457 269.422L124.871 263.993C127.372 262.548 129.408 258.661 129.408 255.268C129.408 252.776 128.283 251.283 126.674 251.283Z" fill="#263238"/>
<path d="M74.6606 104.754V313.195C74.6606 316.976 76.047 319.506 78.1605 320.34H78.2187L87.235 325.275L87.1768 317.267L86.2073 101.138L76.6966 96.2903C75.4203 98.9334 74.726 101.82 74.6606 104.754Z" fill="#E6E6E6"/>
<path d="M87.7293 326.079L77.9762 320.738C75.5622 319.768 74.1758 316.927 74.1758 313.146V104.706C74.2273 101.682 74.9317 98.7058 76.2408 95.9801L76.4541 95.5244L86.6725 100.75V101.041L87.642 317.17L87.7293 326.079ZM78.4706 319.904L86.7501 324.441V317.247L85.7806 101.409L76.9873 96.9108C75.8749 99.3687 75.2745 102.027 75.2228 104.725V313.166C75.2228 316.578 76.4153 319.08 78.4222 319.865L78.5385 319.923L78.4706 319.904Z" fill="#E6E6E6"/>
<path d="M76.6772 96.3096L86.188 101.157L187.985 41.9308L194.771 37.9752L185.377 32.6818L185.115 32.5267C183.612 31.625 181.654 31.6832 179.492 32.9339L83.1438 88.5536C80.2659 90.4395 78.0148 93.1395 76.6772 96.3096Z" fill="#E0E0E0"/>
<path d="M86.1879 101.632C86.1099 101.631 86.0333 101.611 85.9649 101.574L76.4542 96.7266C76.3983 96.6997 76.3484 96.662 76.3073 96.6156C76.2663 96.5692 76.2349 96.515 76.215 96.4564C76.1951 96.3977 76.1872 96.3356 76.1916 96.2738C76.1961 96.2119 76.2128 96.1516 76.2409 96.0964C77.6267 92.8465 79.9444 90.0802 82.9013 88.1466L179.269 32.5074C181.499 31.2277 183.67 31.0822 185.377 32.1099H185.454L185.648 32.2262L195.033 37.51C195.106 37.5545 195.167 37.6171 195.209 37.6918C195.252 37.7664 195.274 37.8507 195.275 37.9365C195.277 38.0215 195.255 38.1053 195.212 38.1788C195.169 38.2523 195.107 38.3127 195.033 38.3534L86.4497 101.535C86.3733 101.592 86.2825 101.625 86.1879 101.632ZM77.317 96.0576L86.1782 100.595L193.792 37.9753L184.863 32.934L184.795 32.8758C183.409 32.0808 181.615 32.2456 179.734 33.3315L83.3667 88.9706C80.718 90.7105 78.6196 93.1687 77.317 96.0576Z" fill="#E0E0E0"/>
<path d="M83.9868 109.989V317.461C83.9868 320.728 85.0339 323.074 86.6917 324.179L87.2443 324.48C88.6889 325.158 90.5018 325.013 92.4699 323.869L139.054 296.995L188.876 267.037C191.428 265.441 193.541 263.234 195.023 260.615C196.506 257.996 197.313 255.048 197.369 252.039V44.5678C197.369 41.4073 196.399 39.1193 194.829 37.9656C194.564 37.7669 194.274 37.6039 193.966 37.4808C193.125 37.1836 192.227 37.0884 191.342 37.2029C190.458 37.3175 189.613 37.6385 188.876 38.1401L92.5087 94.7197C89.7899 96.1426 87.5908 98.3891 86.2263 101.138C84.8275 103.884 84.0622 106.908 83.9868 109.989Z" fill="#FAFAFA"/>
<path d="M188.876 267.037C169.05 278.865 117.464 309.646 91.9272 325.032C91.1654 325.488 90.2964 325.734 89.4086 325.745C88.5209 325.755 87.6461 325.53 86.8736 325.093C86.1011 324.655 85.4583 324.021 85.0109 323.254C84.5634 322.487 84.3272 321.616 84.3264 320.728V107.381C84.3263 104.953 84.9616 102.566 86.1691 100.459C87.3766 98.3517 89.1144 96.597 91.2098 95.3692L189.303 37.8589C190.065 37.4143 190.931 37.1784 191.813 37.1748C192.695 37.1713 193.563 37.4002 194.329 37.8386C195.094 38.2769 195.731 38.9092 196.175 39.6719C196.618 40.4345 196.853 41.3006 196.855 42.1828V252.912C196.857 255.754 196.122 258.549 194.724 261.024C193.326 263.499 191.312 265.571 188.876 267.037Z" fill="#FAFAFA"/>
<path d="M188.595 266.611C173.025 275.879 157.462 285.173 141.905 294.493L114.274 311.023L101.671 318.585L96.1543 321.901C94.4577 322.919 92.6544 324.373 90.7736 325.023C87.6616 326.109 84.8597 323.617 84.7822 320.544C84.7822 320.049 84.7822 319.574 84.7822 319.06V123.455C84.7822 118.249 84.7822 113.033 84.7822 107.827C84.7465 105.362 85.3693 102.933 86.5861 100.789C87.8029 98.6447 89.5698 96.8643 91.7043 95.6311C93.9536 94.3029 96.2125 92.994 98.4908 91.6755L130.154 73.0419L167.722 51.0247C174.848 46.8559 181.954 42.6483 189.051 38.4989C191.261 37.2191 194.044 37.3452 195.585 39.6622C196.131 40.5873 196.387 41.6541 196.322 42.7258V252.097C196.42 254.989 195.754 257.855 194.393 260.408C193.031 262.96 191.022 265.11 188.566 266.64C188.033 266.969 188.518 267.813 189.051 267.483C191.633 265.884 193.754 263.639 195.202 260.97C196.651 258.3 197.378 255.299 197.311 252.262V57.6366C197.311 52.5759 197.36 47.5054 197.311 42.435C197.336 41.4199 197.084 40.4173 196.582 39.5345C196.081 38.6517 195.348 37.9221 194.463 37.4239C193.579 36.9257 192.575 36.6778 191.56 36.7066C190.545 36.7354 189.557 37.04 188.702 37.5875C186.336 38.9545 183.99 40.3506 181.644 41.7273L149.127 60.8554L111.22 83.0761C104.531 87.0026 97.7443 90.8999 91.0839 94.8555C88.8416 96.1749 86.9875 98.063 85.709 100.329C84.4306 102.595 83.7731 105.158 83.803 107.759C83.803 109.504 83.803 111.25 83.803 112.995V319.72C83.803 320.049 83.803 320.389 83.803 320.689C83.8134 321.556 84.0264 322.409 84.4247 323.179C84.8231 323.949 85.396 324.615 86.0976 325.125C86.7992 325.634 87.6101 325.973 88.4658 326.113C89.3214 326.254 90.198 326.192 91.0257 325.934C92.858 325.323 94.5837 323.947 96.2319 322.958L101.855 319.574L114.458 312.032C132.788 301.044 151.134 290.076 169.496 279.127L189.109 267.425C189.613 267.134 189.129 266.291 188.595 266.611Z" fill="#EBEBEB"/>
<path d="M91.171 95.3401L189.303 37.8589C190.065 37.4143 190.931 37.1784 191.813 37.1748C192.695 37.1713 193.563 37.4002 194.329 37.8386C195.094 38.2769 195.731 38.9092 196.175 39.6719C196.618 40.4345 196.853 41.3006 196.855 42.1828V51.4415L84.3167 116.397V107.362C84.3119 104.934 84.942 102.548 86.1444 100.439C87.3467 98.3302 89.0796 96.5724 91.171 95.3401Z" fill="#EBEBEB"/>
<path d="M158.59 145.809C168.541 128.573 168.541 109.943 158.59 104.198C148.639 98.453 132.505 107.768 122.554 125.004C112.603 142.239 112.603 160.869 122.554 166.614C132.505 172.36 148.639 163.045 158.59 145.809Z" fill="#005B77"/>
<path opacity="0.5" d="M158.59 145.809C168.541 128.573 168.541 109.943 158.59 104.198C148.639 98.453 132.505 107.768 122.554 125.004C112.603 142.239 112.603 160.869 122.554 166.614C132.505 172.36 148.639 163.045 158.59 145.809Z" fill="white"/>
<path d="M136 135.516C135.85 135.516 135.701 135.486 135.563 135.429C135.424 135.371 135.298 135.287 135.192 135.181C135.085 135.075 135.001 134.949 134.944 134.81C134.886 134.671 134.856 134.522 134.856 134.372V126.839C134.94 125.052 135.45 123.311 136.344 121.761C137.238 120.211 138.49 118.897 139.995 117.929C140.604 117.427 141.352 117.123 142.139 117.058C142.925 116.992 143.713 117.168 144.397 117.562C145.081 117.956 145.628 118.55 145.966 119.263C146.304 119.977 146.416 120.777 146.287 121.555V129.098C146.287 129.401 146.166 129.692 145.952 129.907C145.737 130.121 145.446 130.242 145.143 130.242C144.839 130.242 144.548 130.121 144.334 129.907C144.119 129.692 143.999 129.401 143.999 129.098V121.517C144.15 121.138 144.159 120.717 144.024 120.332C143.889 119.947 143.619 119.624 143.264 119.423C142.909 119.222 142.493 119.156 142.094 119.238C141.694 119.32 141.337 119.544 141.09 119.868C139.936 120.639 138.976 121.665 138.283 122.868C137.59 124.07 137.184 125.416 137.096 126.8V134.333C137.106 134.635 136.997 134.929 136.792 135.15C136.587 135.372 136.302 135.503 136 135.516Z" fill="#37474F"/>
<path d="M149.806 124.241C149.538 124.13 149.246 124.088 148.958 124.12C148.67 124.153 148.395 124.257 148.158 124.425L132.917 133.228C132.249 133.647 131.696 134.227 131.308 134.915C130.698 135.905 130.364 137.039 130.339 138.201V151.396C130.304 151.766 130.355 152.139 130.486 152.487C130.617 152.834 130.825 153.148 131.095 153.403C131.177 153.468 131.269 153.52 131.366 153.558C131.624 153.654 131.902 153.687 132.175 153.653C132.449 153.619 132.71 153.52 132.937 153.364L148.158 144.552C148.952 143.985 149.602 143.24 150.055 142.376C150.508 141.512 150.751 140.553 150.766 139.578V126.364C150.819 125.956 150.758 125.541 150.588 125.166C150.419 124.79 150.148 124.47 149.806 124.241Z" fill="#005B77"/>
<path d="M142.341 137.998L143.815 142.225L138.647 145.201L139.937 139.985L140.121 139.249C139.248 139.249 138.647 138.599 138.647 137.416C138.654 136.935 138.736 136.457 138.89 136.001C139.292 134.741 140.118 133.659 141.226 132.937C142.651 132.113 143.815 132.782 143.815 134.43C143.744 135.752 143.224 137.011 142.341 137.998Z" fill="#455A64"/>
<path d="M139.898 139.937L140.082 139.2C139.209 139.2 138.608 138.55 138.608 137.368C138.615 136.886 138.697 136.408 138.851 135.952L142.341 137.998L143.815 142.225L139.898 139.937Z" fill="#37474F"/>
<path d="M178.212 184.204L102.979 227.608C99.8674 229.401 97.3467 227.492 97.3467 223.352V211.96C97.3467 207.811 99.8674 202.992 102.979 201.199L178.212 157.795C181.324 156.001 183.845 157.901 183.845 162.051V173.442C183.796 177.592 181.276 182.4 178.212 184.204Z" fill="#005B77"/>
<path d="M116.504 200.171H115.05V212.222H116.504V200.171Z" fill="#FAFAFA"/>
<path d="M121.267 203.615L110.783 209.64L111.51 210.906L121.995 204.88L121.267 203.615Z" fill="#FAFAFA"/>
<path d="M112.444 203.45L111.717 204.709L119.097 208.97L119.824 207.711L112.444 203.45Z" fill="#FAFAFA"/>
<path d="M119.87 198.774L112.488 211.62L113.753 212.347L121.135 199.501L119.87 198.774Z" fill="#FAFAFA"/>
<path d="M141.294 186.676H139.84V198.727H141.294V186.676Z" fill="#FAFAFA"/>
<path d="M145.414 189.08L134.977 195.105L135.704 196.365L146.141 190.339L145.414 189.08Z" fill="#FAFAFA"/>
<path d="M137.243 189.951L136.516 191.21L143.896 195.471L144.624 194.211L137.243 189.951Z" fill="#FAFAFA"/>
<path d="M144.608 185.171L137.225 198.017L138.49 198.744L145.873 185.898L144.608 185.171Z" fill="#FAFAFA"/>
<path d="M166.084 173.171H164.63V185.222H166.084V173.171Z" fill="#FAFAFA"/>
<path d="M171.048 176.499L160.564 182.524L161.291 183.789L171.775 177.764L171.048 176.499Z" fill="#FAFAFA"/>
<path d="M162.035 176.446L161.307 177.706L168.688 181.967L169.415 180.707L162.035 176.446Z" fill="#FAFAFA"/>
<path d="M168.42 172.428L161.037 185.215L162.297 185.942L169.679 173.155L168.42 172.428Z" fill="#FAFAFA"/>
<path d="M180.393 199.89C181.363 199.89 181.857 201.393 181.857 202.886V214.278C181.857 217.739 179.715 221.898 177.194 223.362L102.01 266.766C101.628 267.009 101.192 267.153 100.74 267.183C99.7704 267.183 99.2857 265.68 99.2857 264.187V252.795C99.2857 249.334 101.419 245.175 103.949 243.711L179.182 200.307C179.56 200.064 179.993 199.921 180.442 199.89M180.442 197.951C179.652 197.98 178.884 198.214 178.212 198.63L102.979 242.034C99.8674 243.828 97.3467 248.646 97.3467 252.795V264.187C97.3467 267.27 98.7427 269.122 100.74 269.122C101.533 269.094 102.305 268.86 102.979 268.443L178.212 225.039C181.324 223.245 183.845 218.427 183.845 214.278V202.886C183.845 199.803 182.439 197.951 180.442 197.951Z" fill="#005B77"/>
<path d="M125.605 245.353C124.96 245.724 124.395 245.909 123.911 245.908C123.434 245.895 123.061 245.722 122.792 245.388C122.53 245.043 122.399 244.556 122.399 243.928C122.399 243.3 122.527 242.669 122.782 242.033C123.044 241.387 123.404 240.796 123.861 240.262C124.318 239.72 124.832 239.285 125.404 238.957C125.941 238.648 126.432 238.494 126.876 238.495C127.319 238.488 127.672 238.653 127.934 238.991C128.196 239.329 128.327 239.847 128.327 240.544C128.327 240.622 128.324 240.713 128.317 240.817C128.311 240.922 128.304 241.019 128.297 241.108L123.972 243.594V242.431L127.279 240.531L126.553 241.273C126.56 240.983 126.513 240.762 126.412 240.61C126.318 240.455 126.183 240.369 126.009 240.354C125.841 240.334 125.642 240.39 125.414 240.521C125.185 240.652 124.984 240.826 124.809 241.043C124.641 241.256 124.51 241.498 124.416 241.769C124.321 242.033 124.274 242.308 124.274 242.594V242.932C124.274 243.242 124.328 243.478 124.436 243.641C124.55 243.8 124.711 243.882 124.92 243.887C125.128 243.883 125.377 243.798 125.666 243.632C125.935 243.478 126.163 243.304 126.351 243.11C126.546 242.905 126.738 242.656 126.926 242.361L127.934 242.991C127.672 243.475 127.349 243.917 126.966 244.315C126.583 244.706 126.13 245.052 125.605 245.353ZM132.77 234.724C133.193 234.48 133.576 234.361 133.919 234.365C134.262 234.362 134.531 234.51 134.726 234.809C134.927 235.104 135.028 235.577 135.028 236.228V239.833L133.112 240.934V237.69C133.112 237.24 133.032 236.961 132.87 236.852C132.716 236.731 132.497 236.752 132.215 236.915C132.013 237.03 131.829 237.191 131.661 237.396C131.493 237.593 131.362 237.828 131.267 238.099C131.173 238.37 131.126 238.68 131.126 239.029V242.075L129.211 243.176V236.874L131.036 235.825V237.616L130.683 237.295C130.891 236.718 131.177 236.213 131.54 235.779C131.903 235.338 132.313 234.986 132.77 234.724ZM138.665 237.847C137.968 238.248 137.424 238.363 137.035 238.192C136.646 238.013 136.451 237.522 136.451 236.717V231.319L138.363 230.22V235.594C138.363 235.819 138.417 235.966 138.524 236.036C138.632 236.098 138.769 236.081 138.937 235.984C139.165 235.853 139.36 235.676 139.521 235.452L139.994 236.724C139.833 236.94 139.635 237.143 139.4 237.332C139.165 237.529 138.92 237.701 138.665 237.847ZM135.656 235.061V233.412L139.611 231.139V232.788L135.656 235.061ZM143.432 235.107C142.788 235.478 142.225 235.662 141.742 235.661C141.265 235.649 140.893 235.476 140.624 235.142C140.363 234.798 140.232 234.312 140.232 233.685C140.232 233.058 140.359 232.427 140.614 231.793C140.876 231.148 141.235 230.558 141.691 230.025C142.147 229.484 142.661 229.05 143.231 228.722C143.768 228.414 144.258 228.26 144.701 228.261C145.143 228.254 145.496 228.419 145.757 228.756C146.019 229.093 146.15 229.61 146.15 230.307C146.15 230.384 146.147 230.475 146.14 230.58C146.133 230.684 146.126 230.781 146.12 230.87L141.802 233.351V232.19L145.103 230.293L144.379 231.035C144.385 230.744 144.338 230.524 144.238 230.373C144.144 230.218 144.009 230.132 143.835 230.116C143.667 230.097 143.469 230.153 143.241 230.284C143.013 230.415 142.812 230.588 142.637 230.805C142.47 231.017 142.339 231.259 142.245 231.53C142.151 231.793 142.104 232.067 142.104 232.354V232.69C142.104 233 142.158 233.236 142.265 233.399C142.379 233.557 142.54 233.639 142.748 233.643C142.956 233.64 143.204 233.555 143.493 233.389C143.761 233.235 143.989 233.062 144.177 232.868C144.372 232.664 144.563 232.414 144.751 232.121L145.757 232.75C145.496 233.233 145.174 233.673 144.791 234.071C144.409 234.461 143.956 234.807 143.432 235.107ZM122.741 260.895V254.603L124.563 253.556V255.39L124.291 255.024C124.452 254.459 124.714 253.957 125.076 253.516C125.438 253.068 125.878 252.695 126.394 252.399V254.384C126.307 254.418 126.23 254.455 126.163 254.493C126.103 254.52 126.035 254.555 125.962 254.598C125.572 254.821 125.257 255.126 125.016 255.513C124.774 255.891 124.653 256.356 124.653 256.905V259.796L122.741 260.895Z" fill="#005B77"/>
<path d="M291.051 70.4339C291.096 71.201 291.322 71.9466 291.712 72.609C292.101 73.2715 292.642 73.8319 293.291 74.244C294.532 74.942 295.53 74.37 295.53 72.974C295.486 72.2068 295.26 71.4613 294.87 70.7988C294.481 70.1364 293.939 69.576 293.291 69.1639C292.06 68.4658 291.051 69.0281 291.051 70.4339Z" fill="#455A64"/>
<path d="M261.026 79.46C259.055 79.3943 257.135 78.8199 255.452 77.7925L248.345 73.7691C248.286 73.7399 248.234 73.699 248.191 73.6489C248.148 73.5988 248.116 73.5404 248.097 73.4775C248.077 73.4145 248.071 73.3483 248.078 73.2828C248.085 73.2172 248.105 73.1538 248.137 73.0964C248.17 73.039 248.213 72.9888 248.266 72.9488C248.318 72.9089 248.378 72.88 248.442 72.864C248.506 72.8481 248.573 72.8453 248.638 72.8559C248.703 72.8664 248.765 72.8902 248.82 72.9256L255.927 76.949C259 78.6844 261.841 78.9655 263.944 77.744C266.048 76.5224 267.144 74.0114 267.144 70.6085C267.144 66.8566 268.453 64.0257 270.818 62.6393C273.184 61.2529 276.432 61.5147 279.805 63.4246L291.294 69.9299C291.404 69.9948 291.484 70.0996 291.518 70.2225C291.553 70.3453 291.538 70.4767 291.478 70.5891C291.415 70.7008 291.31 70.7829 291.186 70.8175C291.063 70.852 290.931 70.8361 290.819 70.7733L279.33 64.3165C276.267 62.5811 273.416 62.3 271.313 63.5312C269.209 64.7625 268.113 67.2638 268.113 70.657C268.113 74.4186 266.804 77.2495 264.439 78.6262C263.396 79.2023 262.218 79.4901 261.026 79.46Z" fill="#455A64"/>
<path d="M245.407 71.5971C245.442 72.2171 245.624 72.8199 245.939 73.3547C246.255 73.8895 246.694 74.3407 247.22 74.6704C248.19 75.2424 249.033 74.7771 249.033 73.6428C248.999 73.0228 248.817 72.42 248.501 71.8852C248.186 71.3504 247.747 70.8992 247.22 70.5695C246.222 69.9975 245.407 70.4628 245.407 71.5971Z" fill="#455A64"/>
<path d="M360.079 61.2917L312.574 34.3979C312.075 34.0317 311.472 33.8342 310.853 33.8342C310.234 33.8342 309.631 34.0317 309.132 34.3979L305.022 37.2289L307.824 40.6899V90.7448C307.824 94.2447 309.956 98.3069 312.574 99.829L358.887 126.005L359.1 129.728L363.424 126.762C363.922 126.297 364.308 125.724 364.55 125.087C364.792 124.45 364.884 123.766 364.82 123.087V70.3758C364.839 66.8759 362.707 62.8138 360.079 61.2917Z" fill="#005B77"/>
<path opacity="0.3" d="M360.079 61.2917L312.574 34.3979C312.075 34.0317 311.472 33.8342 310.853 33.8342C310.234 33.8342 309.631 34.0317 309.132 34.3979L305.022 37.2289L307.824 40.6899V90.7448C307.824 94.2447 309.956 98.3069 312.574 99.829L358.887 126.005L359.1 129.728L363.424 126.762C363.922 126.297 364.308 125.724 364.55 125.087C364.792 124.45 364.884 123.766 364.82 123.087V70.3758C364.839 66.8759 362.707 62.8138 360.079 61.2917Z" fill="black"/>
<path d="M356.046 129.495L308.541 102.602C305.913 101.089 303.79 97.0172 303.79 93.5174V40.777C303.79 37.2674 305.913 35.6581 308.541 37.1802L356.046 64.0739C358.673 65.5863 360.796 69.6582 360.796 73.158V125.908C360.796 129.408 358.673 131.017 356.046 129.495Z" fill="#005B77"/>
<path d="M346.07 83.8517C345.962 83.8533 345.857 83.8189 345.771 83.7539C345.685 83.6889 345.623 83.5971 345.595 83.493C344.583 79.7526 343.017 76.1843 340.951 72.9062C340.882 72.7981 340.858 72.667 340.886 72.5416C340.913 72.4162 340.989 72.3068 341.097 72.2372C341.15 72.202 341.21 72.1781 341.274 72.1669C341.337 72.1556 341.402 72.1573 341.464 72.1718C341.527 72.1863 341.586 72.2133 341.637 72.2512C341.689 72.2891 341.733 72.3371 341.766 72.3923C343.887 75.7506 345.495 79.4073 346.535 83.241C346.566 83.3655 346.548 83.497 346.485 83.6087C346.422 83.7203 346.318 83.8038 346.196 83.842L346.07 83.8517Z" fill="white"/>
<path d="M347.156 93.7114C347.026 93.7014 346.906 93.6409 346.821 93.543C346.735 93.445 346.692 93.3174 346.7 93.1878C346.7 92.674 346.758 92.1311 346.758 91.5785C346.753 89.9209 346.607 88.2669 346.322 86.6341C346.3 86.5055 346.33 86.3735 346.406 86.2671C346.481 86.1608 346.596 86.0887 346.724 86.0669C346.853 86.045 346.985 86.0752 347.091 86.1506C347.198 86.2261 347.27 86.3407 347.291 86.4692C347.588 88.1563 347.74 89.8655 347.747 91.5785C347.747 92.1505 347.747 92.7128 347.689 93.2557C347.684 93.3207 347.666 93.3841 347.637 93.4422C347.607 93.5004 347.567 93.5521 347.517 93.5944C347.467 93.6368 347.41 93.6689 347.348 93.689C347.286 93.709 347.221 93.7166 347.156 93.7114Z" fill="white"/>
<path d="M317.499 77.6178C317.379 77.6182 317.264 77.5735 317.176 77.4927C317.088 77.4118 317.034 77.3007 317.024 77.1816C316.946 76.3381 316.907 75.4946 316.907 74.6803C316.907 69.9782 318.178 66.1003 320.485 63.7444C320.529 63.6992 320.582 63.6634 320.64 63.6389C320.698 63.6144 320.761 63.6018 320.824 63.6018C320.887 63.6018 320.95 63.6144 321.008 63.6389C321.067 63.6634 321.119 63.6992 321.164 63.7444C321.209 63.7895 321.245 63.8431 321.27 63.9021C321.294 63.9612 321.307 64.0246 321.307 64.0886C321.307 64.1525 321.294 64.2159 321.27 64.275C321.245 64.3341 321.209 64.3877 321.164 64.4327C319.04 66.6044 317.867 70.2497 317.867 74.69C317.867 75.4752 317.867 76.2896 317.974 77.104C317.981 77.1672 317.975 77.2311 317.956 77.2919C317.938 77.3527 317.907 77.4092 317.866 77.458C317.826 77.5068 317.776 77.5469 317.719 77.5761C317.663 77.6052 317.601 77.6227 317.538 77.6275L317.499 77.6178Z" fill="white"/>
<path d="M338.944 69.7746C338.872 69.7754 338.801 69.7602 338.735 69.73C338.67 69.6998 338.612 69.6554 338.566 69.6001C336.77 67.3128 334.564 65.3797 332.061 63.8995C328.842 62.0768 325.817 61.7278 323.335 62.93C323.22 62.9831 323.087 62.9884 322.968 62.9449C322.848 62.9014 322.75 62.8124 322.696 62.6973C322.668 62.6395 322.652 62.5767 322.648 62.5125C322.645 62.4484 322.654 62.3843 322.676 62.3239C322.698 62.2635 322.731 62.2079 322.774 62.1605C322.818 62.1131 322.87 62.0748 322.928 62.0478C325.72 60.7583 329.046 61.0783 332.555 63.1045C335.163 64.6477 337.464 66.6591 339.342 69.0378C339.422 69.137 339.46 69.264 339.447 69.3911C339.435 69.5181 339.372 69.6351 339.274 69.7164C339.174 69.7743 339.058 69.795 338.944 69.7746Z" fill="white"/>
<path d="M320.844 77.9959C320.718 77.996 320.598 77.9476 320.508 77.8609C320.417 77.7741 320.364 77.6557 320.359 77.5306C320.359 77.23 320.359 76.9295 320.359 76.6289C320.359 73.1872 321.202 70.3757 322.802 68.5046C322.842 68.4555 322.892 68.4149 322.948 68.3853C323.004 68.3557 323.066 68.3376 323.129 68.3322C323.192 68.3268 323.256 68.3341 323.316 68.3537C323.377 68.3733 323.433 68.4049 323.481 68.4464C323.578 68.5309 323.639 68.6501 323.65 68.7788C323.661 68.9074 323.621 69.0351 323.539 69.1348C322.094 70.8314 321.328 73.4199 321.328 76.6289C321.328 76.9101 321.328 77.2009 321.328 77.4821C321.331 77.5458 321.321 77.6093 321.299 77.6691C321.277 77.7289 321.243 77.7838 321.2 77.8307C321.157 77.8775 321.105 77.9153 321.047 77.942C320.989 77.9687 320.927 77.9837 320.863 77.9862L320.844 77.9959Z" fill="white"/>
<path d="M324.606 68.0101C324.499 68.0111 324.395 67.977 324.31 67.9129C324.225 67.8489 324.163 67.7586 324.134 67.6559C324.105 67.5532 324.111 67.4439 324.151 67.3449C324.191 67.246 324.262 67.1628 324.354 67.1084C325.596 66.3698 327.05 66.0694 328.484 66.2553C328.611 66.2676 328.728 66.3295 328.809 66.4275C328.891 66.5255 328.931 66.6517 328.92 66.7788C328.905 66.9066 328.841 67.0237 328.742 67.1051C328.642 67.1866 328.515 67.226 328.387 67.2151C327.165 67.0695 325.93 67.3357 324.877 67.9713C324.791 68.0072 324.698 68.0206 324.606 68.0101Z" fill="white"/>
<path d="M346.07 99.9453C345.973 99.9454 345.878 99.917 345.797 99.8636C345.716 99.8101 345.652 99.734 345.614 99.6447L345.052 98.239C343.925 95.5205 343.329 92.6113 343.297 89.6686C343.297 81.4473 338.256 71.9366 332.061 68.4271C332.005 68.3959 331.956 68.354 331.918 68.3037C331.879 68.2534 331.85 68.1958 331.834 68.1343C331.818 68.0729 331.814 68.0087 331.823 67.9458C331.832 67.8828 331.853 67.8223 331.886 67.7678C331.916 67.7115 331.958 67.6619 332.008 67.622C332.058 67.5821 332.115 67.5527 332.176 67.5355C332.238 67.5183 332.302 67.5137 332.366 67.5219C332.429 67.5302 332.49 67.5512 332.545 67.5836C339.002 71.2483 344.266 81.1565 344.266 89.6299C344.291 92.4599 344.864 95.2584 345.953 97.8705L346.516 99.2763C346.541 99.3347 346.554 99.3977 346.555 99.4613C346.555 99.525 346.543 99.588 346.518 99.6468C346.494 99.7056 346.458 99.7589 346.412 99.8035C346.367 99.8481 346.313 99.8831 346.254 99.9065C346.196 99.9324 346.133 99.9456 346.07 99.9453Z" fill="white"/>
<path d="M323.81 94.3706C323.711 94.3706 323.614 94.3399 323.532 94.2826C323.451 94.2254 323.389 94.1444 323.355 94.0507C321.789 89.4696 320.777 84.7177 320.34 79.8961C320.334 79.8317 320.342 79.7668 320.362 79.7053C320.382 79.6439 320.415 79.5871 320.457 79.5383C320.5 79.4895 320.551 79.4497 320.609 79.4213C320.668 79.3928 320.731 79.3762 320.795 79.3726C320.923 79.3695 321.046 79.4149 321.142 79.4994C321.237 79.5839 321.297 79.7014 321.309 79.8282C321.722 84.5584 322.699 89.2224 324.218 93.7211C324.241 93.7808 324.251 93.8446 324.249 93.9085C324.247 93.9725 324.232 94.0353 324.204 94.0933C324.177 94.1512 324.139 94.2031 324.091 94.2457C324.043 94.2884 323.987 94.321 323.927 94.3415C323.889 94.3563 323.85 94.3661 323.81 94.3706Z" fill="white"/>
<path d="M343.22 103.212C343.121 103.215 343.024 103.186 342.942 103.13C342.861 103.075 342.798 102.995 342.764 102.902L341.465 99.412C340.155 96.0055 339.45 92.3966 339.381 88.7476V84.9375C339.381 80.41 336.133 74.8936 332.138 72.6347C330.277 71.5779 328.551 71.3937 327.291 72.1305C326.031 72.8673 325.352 74.3894 325.352 76.4545V79.8283C325.458 85.309 326.555 90.7252 328.59 95.8152L330.19 99.984C330.213 100.044 330.224 100.108 330.223 100.172C330.221 100.236 330.207 100.299 330.181 100.358C330.155 100.417 330.117 100.469 330.071 100.513C330.024 100.557 329.969 100.592 329.909 100.614C329.789 100.658 329.657 100.654 329.541 100.601C329.425 100.548 329.334 100.452 329.288 100.333L327.689 96.1642C325.622 90.9604 324.512 85.4264 324.412 79.8283V76.4642C324.412 74.0404 325.255 72.2081 326.806 71.3065C328.357 70.4048 330.442 70.5696 332.623 71.8009C336.879 74.2149 340.379 80.1094 340.379 84.9472V88.7573C340.446 92.291 341.132 95.7855 342.405 99.0824L343.695 102.563C343.718 102.622 343.729 102.685 343.728 102.749C343.726 102.812 343.712 102.875 343.685 102.933C343.659 102.99 343.622 103.042 343.575 103.085C343.528 103.129 343.473 103.162 343.414 103.183L343.22 103.212Z" fill="white"/>
<path d="M338.944 104.599C338.841 104.6 338.739 104.567 338.656 104.506C338.572 104.445 338.51 104.358 338.479 104.26L337.8 101.972C336.564 97.9557 335.911 93.783 335.861 89.5815V83.7063C335.786 82.3755 335.395 81.0818 334.721 79.932C334.046 78.7822 333.108 77.8095 331.983 77.0944C331.632 76.8374 331.22 76.6771 330.788 76.6294C330.356 76.5818 329.919 76.6485 329.521 76.8229C329.18 77.0702 328.911 77.4031 328.741 77.7879C328.571 78.1727 328.505 78.5957 328.551 79.014C328.551 85.5678 330.548 93.1201 334.165 100.285L335.532 102.99C335.56 103.047 335.577 103.109 335.582 103.173C335.586 103.237 335.578 103.301 335.558 103.362C335.538 103.423 335.506 103.479 335.464 103.527C335.422 103.576 335.371 103.615 335.313 103.644C335.256 103.673 335.194 103.69 335.13 103.694C335.066 103.699 335.002 103.691 334.941 103.67C334.88 103.65 334.824 103.618 334.776 103.576C334.727 103.534 334.688 103.483 334.659 103.426L333.302 100.721C329.608 93.4207 327.582 85.7132 327.582 79.014C327.527 78.4261 327.632 77.8342 327.884 77.3004C328.136 76.7666 328.528 76.3104 329.017 75.9795C329.56 75.7173 330.163 75.6043 330.764 75.652C331.366 75.6997 331.944 75.9064 332.439 76.2509C333.71 77.056 334.771 78.1521 335.535 79.4485C336.298 80.7448 336.743 82.2043 336.831 83.7063V89.6009C336.875 93.7103 337.511 97.7919 338.721 101.72L339.4 103.998C339.419 104.059 339.426 104.123 339.419 104.187C339.413 104.251 339.394 104.312 339.363 104.369C339.332 104.425 339.291 104.474 339.24 104.514C339.19 104.553 339.132 104.582 339.07 104.599C339.029 104.607 338.986 104.607 338.944 104.599Z" fill="white"/>
<path d="M333.505 94.3706C333.395 94.3694 333.289 94.3315 333.203 94.263C333.117 94.1946 333.056 94.0994 333.03 93.9925L332.584 91.9178C332.158 89.9229 331.944 87.8886 331.945 85.8488V80.3905C331.945 80.2619 331.996 80.1386 332.087 80.0477C332.177 79.9568 332.301 79.9058 332.429 79.9058C332.558 79.9058 332.681 79.9568 332.772 80.0477C332.863 80.1386 332.914 80.2619 332.914 80.3905V85.8488C332.92 87.8039 333.128 89.7533 333.535 91.6657L333.981 93.7404C333.995 93.8022 333.996 93.8662 333.985 93.9287C333.975 93.9912 333.951 94.0508 333.917 94.1041C333.883 94.1574 333.838 94.2033 333.786 94.2391C333.733 94.2749 333.674 94.2998 333.612 94.3124L333.505 94.3706Z" fill="white"/>
<path d="M318.556 83.8516C318.436 83.8501 318.32 83.805 318.231 83.7247C318.142 83.6445 318.085 83.5345 318.071 83.4154L317.79 80.5844C317.779 80.4563 317.818 80.3289 317.9 80.2293C317.981 80.1298 318.098 80.0659 318.226 80.0512C318.29 80.0432 318.355 80.0482 318.417 80.066C318.479 80.0838 318.536 80.1141 318.586 80.1549C318.636 80.1957 318.677 80.2462 318.707 80.3034C318.737 80.3606 318.754 80.4232 318.759 80.4875L319.04 83.3184C319.047 83.3821 319.041 83.4465 319.023 83.5079C319.004 83.5693 318.974 83.6264 318.933 83.676C318.893 83.7256 318.843 83.7666 318.786 83.7968C318.73 83.8269 318.668 83.8456 318.604 83.8516H318.556Z" fill="white"/>
<path d="M360.079 151.125L312.574 124.221C312.075 123.855 311.472 123.658 310.853 123.658C310.234 123.658 309.631 123.855 309.132 124.221L305.022 127.052L307.824 130.513V180.568C307.824 184.068 309.956 188.13 312.574 189.652L358.887 215.829L359.1 219.552L363.424 216.595C363.923 216.128 364.308 215.553 364.55 214.915C364.792 214.276 364.884 213.59 364.82 212.91V160.17C364.839 156.699 362.707 152.637 360.079 151.125Z" fill="#005B77"/>
<path opacity="0.3" d="M360.079 151.125L312.574 124.221C312.075 123.855 311.472 123.658 310.853 123.658C310.234 123.658 309.631 123.855 309.132 124.221L305.022 127.052L307.824 130.513V180.568C307.824 184.068 309.956 188.13 312.574 189.652L358.887 215.829L359.1 219.552L363.424 216.595C363.923 216.128 364.308 215.553 364.55 214.915C364.792 214.276 364.884 213.59 364.82 212.91V160.17C364.839 156.699 362.707 152.637 360.079 151.125Z" fill="black"/>
<path d="M356.046 219.319L308.541 192.425C305.913 190.913 303.79 186.851 303.79 183.341V130.601C303.79 127.101 305.913 125.491 308.541 127.004L356.046 153.897C358.673 155.42 360.796 159.482 360.796 162.982V215.732C360.796 219.232 358.673 220.841 356.046 219.319Z" fill="#005B77"/>
<path d="M314.377 145.317C314.249 145.317 314.125 145.266 314.034 145.176C313.943 145.085 313.892 144.961 313.892 144.833V141.566C313.89 141.241 313.974 140.922 314.135 140.641C314.297 140.359 314.531 140.126 314.813 139.966C315.106 139.79 315.441 139.697 315.783 139.697C316.125 139.697 316.46 139.79 316.752 139.966L320.175 141.905C320.288 141.968 320.371 142.073 320.407 142.198C320.442 142.322 320.427 142.456 320.364 142.569C320.301 142.682 320.195 142.766 320.071 142.801C319.946 142.836 319.813 142.821 319.7 142.758L316.268 140.819C316.12 140.734 315.953 140.689 315.783 140.689C315.613 140.689 315.446 140.734 315.298 140.819C315.164 140.894 315.053 141.004 314.976 141.137C314.899 141.27 314.86 141.422 314.862 141.575V144.842C314.859 144.969 314.807 145.09 314.717 145.179C314.626 145.268 314.504 145.318 314.377 145.317Z" fill="white"/>
<path d="M319.884 190.273C319.803 190.272 319.723 190.252 319.651 190.215L316.452 188.402C315.687 187.961 315.053 187.327 314.612 186.563C314.171 185.798 313.94 184.931 313.941 184.049V181.034C313.941 180.905 313.992 180.782 314.083 180.691C314.174 180.6 314.297 180.549 314.426 180.549C314.554 180.549 314.678 180.6 314.769 180.691C314.86 180.782 314.911 180.905 314.911 181.034V184.049C314.914 184.764 315.106 185.466 315.469 186.082C315.832 186.699 316.352 187.208 316.976 187.558L320.175 189.371C320.266 189.425 320.337 189.507 320.377 189.605C320.417 189.703 320.423 189.812 320.396 189.914C320.368 190.016 320.308 190.106 320.225 190.171C320.141 190.236 320.038 190.272 319.933 190.273H319.884Z" fill="white"/>
<path d="M348.843 206.473C348.503 206.48 348.167 206.392 347.873 206.221L344.451 204.282C344.339 204.219 344.257 204.114 344.223 203.99C344.188 203.867 344.204 203.735 344.267 203.623C344.332 203.513 344.436 203.432 344.559 203.398C344.682 203.364 344.814 203.378 344.926 203.439L348.358 205.378C348.505 205.463 348.673 205.507 348.843 205.507C349.013 205.507 349.18 205.463 349.327 205.378C349.462 205.302 349.573 205.193 349.65 205.059C349.726 204.926 349.766 204.775 349.764 204.621V201.354C349.764 201.226 349.815 201.102 349.906 201.011C349.997 200.92 350.12 200.869 350.249 200.869C350.377 200.869 350.5 200.92 350.591 201.011C350.682 201.102 350.733 201.226 350.733 201.354V204.621C350.735 204.944 350.651 205.262 350.489 205.542C350.327 205.821 350.093 206.052 349.812 206.211C349.519 206.385 349.184 206.476 348.843 206.473Z" fill="white"/>
<path d="M350.229 165.628C350.101 165.628 349.977 165.577 349.886 165.486C349.795 165.395 349.744 165.272 349.744 165.143V162.128C349.742 161.414 349.549 160.714 349.186 160.099C348.823 159.484 348.303 158.976 347.679 158.629L344.48 156.816C344.368 156.751 344.285 156.644 344.251 156.519C344.216 156.394 344.233 156.26 344.296 156.147C344.327 156.091 344.369 156.042 344.419 156.004C344.469 155.965 344.527 155.936 344.589 155.92C344.65 155.904 344.714 155.9 344.777 155.909C344.84 155.918 344.901 155.939 344.955 155.972L348.154 157.785C348.927 158.218 349.57 158.849 350.02 159.612C350.47 160.374 350.709 161.243 350.714 162.128V165.143C350.714 165.272 350.663 165.395 350.572 165.486C350.481 165.577 350.358 165.628 350.229 165.628Z" fill="white"/>
<path d="M318.672 161.624C318.78 167.129 319.568 172.6 321.018 177.912C324.703 191.814 339.235 200.355 343.23 190.942C345.106 186.31 346.026 181.347 345.934 176.351C345.934 167.819 339.827 157.446 332.303 153.18C324.606 148.827 318.566 152.87 318.672 161.624Z" fill="white"/>
<path d="M331.818 169.39V178.523L327.853 175.556L331.818 169.39Z" fill="#E0E0E0"/>
<path d="M324.44 163.932C324.466 164.379 324.597 164.815 324.823 165.202C325.049 165.59 325.363 165.918 325.74 166.162C326.467 166.569 327.048 166.239 327.048 165.415C327.023 164.968 326.891 164.532 326.663 164.146C326.436 163.76 326.119 163.434 325.74 163.195C325.022 162.788 324.44 163.117 324.44 163.932Z" fill="#E0E0E0"/>
<path d="M336.578 170.893C336.606 171.34 336.739 171.774 336.966 172.16C337.194 172.546 337.509 172.872 337.887 173.113C338.614 173.52 339.196 173.19 339.196 172.376C339.171 171.927 339.039 171.491 338.811 171.103C338.583 170.715 338.267 170.387 337.887 170.146C337.209 169.739 336.578 170.069 336.578 170.893Z" fill="#E0E0E0"/>
<path d="M330.51 182.992L334.94 182.245C334.94 182.245 334 186.976 330.51 182.992Z" fill="#E0E0E0"/>
<path d="M291.051 155.177C291.097 155.943 291.324 156.686 291.714 157.347C292.103 158.008 292.644 158.567 293.291 158.978C294.532 159.685 295.53 159.113 295.53 157.717C295.486 156.95 295.26 156.205 294.87 155.542C294.481 154.88 293.939 154.319 293.291 153.907C292.06 153.2 291.051 153.772 291.051 155.177Z" fill="#455A64"/>
<path d="M291.139 156.234C291.054 156.233 290.972 156.213 290.896 156.176L279.417 149.632C272.699 145.831 267.231 136.534 267.231 128.923C267.231 121.613 261.986 112.704 255.539 109.049L248.345 104.977C248.234 104.914 248.151 104.809 248.117 104.685C248.082 104.562 248.098 104.429 248.161 104.318C248.191 104.261 248.233 104.212 248.283 104.172C248.332 104.132 248.39 104.102 248.451 104.085C248.513 104.068 248.577 104.063 248.641 104.072C248.704 104.08 248.765 104.101 248.82 104.133L256.014 108.205C262.733 112.015 268.2 121.303 268.2 128.923C268.2 136.224 273.445 145.133 279.893 148.788L291.381 155.303C291.493 155.366 291.575 155.471 291.609 155.595C291.644 155.718 291.628 155.851 291.565 155.962C291.524 156.041 291.463 156.108 291.388 156.156C291.314 156.203 291.227 156.23 291.139 156.234Z" fill="#455A64"/>
<path d="M245.408 102.65C245.445 103.271 245.629 103.873 245.944 104.409C246.259 104.945 246.696 105.399 247.221 105.733C248.19 106.295 249.033 105.84 249.033 104.705C248.996 104.085 248.813 103.482 248.497 102.946C248.182 102.41 247.745 101.957 247.221 101.622C246.222 101.06 245.408 101.516 245.408 102.65Z" fill="#455A64"/>
<path d="M259.048 191.514C259.048 191.514 266.116 191.039 270.12 200.86C272.612 206.968 275.646 216.372 277.585 222.673C278.174 224.576 278.188 226.61 277.626 228.521C277.063 230.432 275.95 232.135 274.425 233.415L262.102 243.76L257.711 235.742C260.272 232.325 263.088 229.107 266.135 226.115L257.711 200.86L259.048 191.514Z" fill="#FFA8A7"/>
<path d="M262.306 221.51C262.306 221.51 273.532 222.993 276.334 214.336C276.334 214.336 271.487 201.664 269.315 197.457C267.144 193.249 262.606 190.186 259.048 191.514C255.49 192.842 262.306 221.51 262.306 221.51Z" fill="#005B77"/>
<path opacity="0.4" d="M262.306 221.51C262.306 221.51 273.532 222.993 276.334 214.336C276.334 214.336 271.487 201.664 269.315 197.457C267.144 193.249 262.606 190.186 259.048 191.514C255.49 192.842 262.306 221.51 262.306 221.51Z" fill="white"/>
<path d="M254.802 335.193C254.802 335.193 249.47 330.626 247.395 330.413C245.32 330.2 241.733 333.748 244.768 339.904C245.611 341.62 249.043 343.472 251.186 346.759C253.328 350.045 255.248 352.518 258.535 352.062C261.821 351.606 262.248 349.764 262.034 347.622C261.756 345.662 261.365 343.719 260.861 341.805L254.802 335.193Z" fill="#37474F"/>
<path d="M258.68 351.083C255.297 351.548 253.309 348.998 251.099 345.615C248.888 342.231 245.359 340.312 244.487 338.547C244.137 337.84 243.852 337.104 243.634 336.346C243.795 337.587 244.169 338.791 244.739 339.904C245.582 341.62 249.014 343.472 251.157 346.759C253.299 350.045 255.219 352.518 258.506 352.062C261.026 351.723 261.86 350.55 262.015 349.056C261.589 350.065 260.668 350.821 258.68 351.083Z" fill="#263238"/>
<path d="M251.971 341.068C251.885 341.07 251.801 341.046 251.729 341C251.669 340.968 251.616 340.925 251.572 340.873C251.529 340.821 251.496 340.76 251.477 340.695C251.457 340.631 251.45 340.562 251.457 340.495C251.463 340.427 251.483 340.362 251.515 340.302C252.601 338.379 254.403 336.964 256.528 336.366C256.658 336.346 256.792 336.376 256.901 336.451C257.01 336.525 257.087 336.638 257.117 336.767C257.146 336.896 257.126 337.031 257.06 337.145C256.994 337.26 256.887 337.345 256.76 337.384C254.932 337.918 253.379 339.137 252.427 340.787C252.383 340.87 252.318 340.94 252.238 340.99C252.157 341.039 252.065 341.066 251.971 341.068Z" fill="#EBEBEB"/>
<path d="M249.955 339.226C249.87 339.225 249.787 339.205 249.712 339.168C249.652 339.136 249.599 339.093 249.556 339.041C249.512 338.988 249.48 338.928 249.46 338.863C249.44 338.798 249.433 338.73 249.44 338.662C249.447 338.595 249.467 338.529 249.499 338.47C250.036 337.515 250.756 336.676 251.617 336.001C252.479 335.325 253.466 334.827 254.521 334.533C254.59 334.497 254.667 334.477 254.746 334.476C254.824 334.474 254.902 334.49 254.973 334.523C255.045 334.556 255.107 334.604 255.157 334.665C255.206 334.726 255.241 334.798 255.259 334.874C255.276 334.951 255.276 335.03 255.258 335.106C255.24 335.183 255.205 335.254 255.156 335.315C255.106 335.376 255.043 335.424 254.972 335.457C254.9 335.489 254.822 335.505 254.744 335.503C252.915 336.043 251.364 337.264 250.41 338.916C250.373 339.006 250.309 339.083 250.229 339.138C250.148 339.194 250.052 339.224 249.955 339.226Z" fill="#EBEBEB"/>
<path d="M247.696 337.393C247.611 337.393 247.529 337.373 247.453 337.335C247.331 337.27 247.24 337.158 247.2 337.025C247.16 336.893 247.175 336.75 247.24 336.628C248.329 334.706 250.134 333.294 252.262 332.701C252.328 332.685 252.397 332.683 252.464 332.694C252.531 332.705 252.596 332.729 252.653 332.765C252.711 332.801 252.761 332.849 252.8 332.904C252.84 332.96 252.868 333.022 252.882 333.089C252.911 333.224 252.886 333.365 252.811 333.481C252.737 333.597 252.62 333.679 252.485 333.709C250.656 334.249 249.105 335.471 248.151 337.122C248.108 337.205 248.043 337.275 247.962 337.322C247.882 337.37 247.789 337.395 247.696 337.393Z" fill="#EBEBEB"/>
<path d="M226.425 350.171C226.425 350.171 219.28 347.854 217.147 348.494C215.014 349.134 212.93 354.117 218.456 358.955C219.988 360.293 224.137 360.72 227.608 363.085C231.079 365.451 233.987 367.089 237.051 365.296C240.114 363.502 239.862 361.418 239.31 359.207C238.621 356.357 238.059 354.282 238.059 354.282L226.425 350.171Z" fill="#37474F"/>
<path d="M236.818 364.258C233.667 366.11 230.652 364.413 227.123 361.97C223.594 359.527 219.27 359.062 217.69 357.714C217.05 357.158 216.463 356.545 215.935 355.882C216.604 357.046 217.47 358.086 218.495 358.955C220.026 360.293 224.176 360.72 227.647 363.085C231.117 365.451 234.026 367.089 237.089 365.296C239.426 363.929 239.775 362.387 239.319 360.884C239.29 362.057 238.631 363.192 236.818 364.258Z" fill="#263238"/>
<path d="M224.748 356.774H224.699C224.562 356.759 224.436 356.691 224.349 356.583C224.262 356.476 224.22 356.339 224.234 356.202C224.515 353.868 225.711 351.741 227.559 350.288C227.614 350.248 227.676 350.22 227.742 350.204C227.807 350.189 227.876 350.187 227.942 350.197C228.009 350.208 228.073 350.232 228.13 350.267C228.187 350.303 228.237 350.349 228.277 350.404C228.357 350.516 228.39 350.655 228.368 350.792C228.346 350.928 228.272 351.05 228.16 351.131C226.563 352.42 225.521 354.273 225.252 356.308C225.24 356.434 225.182 356.552 225.089 356.637C224.996 356.723 224.874 356.772 224.748 356.774Z" fill="#EBEBEB"/>
<path d="M227.656 357.734C227.521 357.719 227.396 357.652 227.31 357.547C227.223 357.442 227.18 357.307 227.191 357.171C227.476 354.836 228.671 352.707 230.516 351.248C230.63 351.168 230.77 351.137 230.906 351.161C231.042 351.184 231.164 351.261 231.244 351.374C231.282 351.429 231.31 351.492 231.325 351.558C231.34 351.624 231.341 351.692 231.33 351.759C231.318 351.825 231.293 351.889 231.257 351.946C231.22 352.003 231.173 352.052 231.117 352.091C229.516 353.376 228.473 355.232 228.209 357.268C228.197 357.403 228.132 357.527 228.028 357.614C227.925 357.702 227.791 357.744 227.656 357.734Z" fill="#EBEBEB"/>
<path d="M221.994 355.775H221.946C221.81 355.76 221.686 355.693 221.599 355.588C221.512 355.483 221.47 355.349 221.48 355.213C221.76 352.876 222.956 350.745 224.806 349.289C224.918 349.209 225.057 349.177 225.192 349.2C225.327 349.223 225.448 349.298 225.528 349.41C225.608 349.522 225.64 349.661 225.617 349.797C225.594 349.932 225.519 350.053 225.407 350.133C223.805 351.418 222.763 353.273 222.498 355.31C222.486 355.436 222.428 355.553 222.335 355.639C222.242 355.725 222.121 355.773 221.994 355.775Z" fill="#EBEBEB"/>
<path d="M261.201 336.55C261.841 329.473 263.227 318.382 263.809 313.195C264.592 306.64 264.403 300.004 263.246 293.504C262.949 291.972 262.874 290.405 263.023 288.851C264.429 274.755 265.34 251.904 264.565 246.882L244.777 251.07C244.777 251.07 247.201 283.131 248.268 293.795C249.334 304.46 253.309 336.647 253.309 336.647C254.49 337.403 255.867 337.796 257.269 337.779C258.672 337.762 260.038 337.335 261.201 336.55Z" fill="#455A64"/>
<path d="M258.35 343.831C258.897 343.703 259.407 343.454 259.844 343.102C260.28 342.749 260.631 342.302 260.871 341.795C260.871 340.68 260.997 338.819 261.201 336.55C260.038 337.335 258.672 337.762 257.269 337.779C255.867 337.797 254.49 337.403 253.309 336.647L254.007 342.6C254.589 343.123 255.283 343.507 256.036 343.72C256.789 343.933 257.58 343.971 258.35 343.831Z" fill="#FFA8A7"/>
<path d="M238.941 348.998C239.746 338.276 241.307 317.519 241.51 314.252C241.662 310.647 241.435 307.037 240.832 303.481C240.482 301.557 240.482 299.587 240.832 297.664L249.557 249.402L225.64 249.053L224.079 299.612C224.062 300.26 224.088 300.907 224.157 301.551L229.227 348.678C229.227 348.678 234.171 352.837 238.941 348.998Z" fill="#455A64"/>
<path d="M234.947 357.84C235.69 357.754 236.401 357.484 237.014 357.054C237.627 356.624 238.122 356.048 238.456 355.378L238.941 348.998C234.171 352.876 229.246 348.698 229.246 348.698L230.002 355.756C230.002 355.756 231.107 358.199 234.947 357.84Z" fill="#FFA8A7"/>
<path d="M236.692 194.733L231.05 196.672L224.98 225.378L225.281 250.828C225.281 250.828 229.615 254.289 246.542 254.289C256.043 254.289 262.238 250.702 264.565 246.891L263.043 231.515C263.043 231.515 264.565 216.362 264.565 208.868C264.565 201.374 264.904 195.237 259.048 191.524L253.833 191.96L236.692 194.733Z" fill="#005B77"/>
<path opacity="0.2" d="M236.692 194.733L231.05 196.672L224.98 225.378L225.281 250.828C225.281 250.828 229.615 254.289 246.542 254.289C256.043 254.289 262.238 250.702 264.565 246.891L263.043 231.515C263.043 231.515 264.565 216.362 264.565 208.868C264.565 201.374 264.904 195.237 259.048 191.524L253.833 191.96L236.692 194.733Z" fill="white"/>
<path d="M230.565 170.059L227.744 175.653C227.703 175.734 227.68 175.823 227.677 175.914C227.674 176.005 227.69 176.095 227.725 176.179C227.76 176.263 227.813 176.338 227.88 176.399C227.946 176.461 228.026 176.507 228.112 176.535L231.457 177.66L230.565 170.059Z" fill="#F28F8F"/>
<path d="M234.443 160.684C234.443 160.684 230.158 162.991 230.158 176.196C230.158 183.477 230.662 188.121 234.443 187.83C238.224 187.539 249.121 186.114 249.121 186.114V160.684H234.443Z" fill="#FFA8A7"/>
<path d="M234.443 187.878C235.771 187.772 237.981 187.529 240.26 187.258V185.91C238.181 186.797 236.008 187.448 233.784 187.849C234.002 187.875 234.223 187.885 234.443 187.878Z" fill="#F28F8F"/>
<path d="M239.678 185.348V193.656H251.05V181.984L239.678 185.348Z" fill="#FFA8A7"/>
<path d="M239.678 190.496C239.678 190.496 243.769 191.95 247.046 191.378C250.323 190.806 251.05 188.809 251.05 188.809C251.05 188.809 252.117 188.722 253.833 191.95C253.165 193.156 252.209 194.179 251.05 194.926C249.891 195.674 248.566 196.124 247.192 196.235C243.626 196.464 240.051 195.952 236.692 194.733C236.692 194.733 238.321 190.079 239.678 190.496Z" fill="#005B77"/>
<path opacity="0.4" d="M239.678 190.496C239.678 190.496 243.769 191.95 247.046 191.378C250.323 190.806 251.05 188.809 251.05 188.809C251.05 188.809 252.117 188.722 253.833 191.95C253.165 193.156 252.209 194.179 251.05 194.926C249.891 195.674 248.566 196.124 247.192 196.235C243.626 196.464 240.051 195.952 236.692 194.733C236.692 194.733 238.321 190.079 239.678 190.496Z" fill="white"/>
<path d="M214.306 215.16L211.253 219.852C211.253 219.852 203.836 216.546 198.649 214.539C195.629 213.418 192.817 211.799 190.331 209.75C190.516 207.73 190.84 205.725 191.3 203.749C191.901 201.713 192.105 200.016 190.331 200.918C188.557 201.82 187.325 205.32 187.219 205.766C187.219 205.766 176.797 195.285 175.498 195.518C174.199 195.751 174.528 197.321 177.301 200.55L180.103 203.788C180.103 203.788 173.714 207.462 174.751 211.476C175.788 215.49 184.213 217.293 184.213 217.293C184.213 217.293 208.868 236.237 214.326 232.805C219.784 229.373 227.511 219.571 227.511 219.571L214.306 215.16Z" fill="#FFA8A7"/>
<path d="M233.289 195.925C233.289 195.925 237.846 199.667 234.879 207.404C231.912 215.14 224.341 224.486 224.341 224.486C224.341 224.486 216.41 222.014 213.347 215.606L223.352 199.948C224.061 198.834 225.024 197.902 226.161 197.228C227.298 196.554 228.577 196.158 229.896 196.07C230.846 196.012 231.971 195.964 233.289 195.925Z" fill="#005B77"/>
<path opacity="0.4" d="M233.289 195.925C233.289 195.925 237.846 199.667 234.879 207.404C231.912 215.14 224.341 224.486 224.341 224.486C224.341 224.486 216.41 222.014 213.347 215.606L223.352 199.948C224.061 198.834 225.024 197.902 226.161 197.228C227.298 196.554 228.577 196.158 229.896 196.07C230.846 196.012 231.971 195.964 233.289 195.925Z" fill="white"/>
<path d="M232.843 152.889C232.843 152.889 228.345 152.288 227.201 155.381C226.483 157.32 228.771 158.813 228.771 158.813C228.771 158.813 225.863 161.537 230.197 162.381C230.122 162.846 230.164 163.322 230.318 163.767C230.472 164.212 230.735 164.612 231.081 164.931C231.428 165.25 231.848 165.478 232.305 165.594C232.761 165.711 233.239 165.713 233.696 165.599C233.696 165.599 233.192 168.508 236.983 169.565C236.983 169.565 235.044 174.664 238.67 174.732H242.034L240.677 178.668C240.677 178.668 243.197 184.737 251.05 184.737C251.912 182.894 252.883 181.103 253.959 179.376C254.928 178.164 259.776 171.95 259.776 167.025C259.776 162.1 257.885 159.181 255.258 158.532C254.426 156.722 253.128 155.166 251.496 154.024C248.85 152.24 243.285 150.65 240.144 152.841C240.144 152.841 237.361 149.186 235.432 149.186C233.502 149.186 232.843 151.173 232.843 152.889Z" fill="#263238"/>
<path d="M238.67 174.732C238.67 174.732 238.34 169.565 242.693 169.565C247.046 169.565 246.018 178.668 240.676 178.668L238.67 174.732Z" fill="#FFA8A7"/>
</svg>
